HIERARCHY
ROOT Hips
{
  OFFSET 54.0557 85.5852 5.68159
  CHANNELS 6 Xposition Yposition Zposition Zrotation Xrotation Yrotation
  JOINT spine
  {
    OFFSET 0 6.3926 0.367606
    CHANNELS 3 Zrotation Xrotation Yrotation
    JOINT spine1
    {
      OFFSET 0 9.17611 0
      CHANNELS 3 Zrotation Xrotation Yrotation
      JOINT spine2
      {
        OFFSET 0 8.79238 0
        CHANNELS 3 Zrotation Xrotation Yrotation
        JOINT Neck
        {
          OFFSET 0 22.5737 1.07624
          CHANNELS 3 Zrotation Xrotation Yrotation
          JOINT Head
          {
            OFFSET 0 6.82011 0
            CHANNELS 3 Zrotation Xrotation Yrotation
            End Site
            {
              OFFSET 0 16.5085 -5.44427
            }
          }
        }
        JOINT RightShoulder
        {
          OFFSET -3.70221 9.49509 -0.515508
          CHANNELS 3 Zrotation Xrotation Yrotation
          JOINT RightArm
          {
            OFFSET 0 12.4537 0
            CHANNELS 3 Zrotation Xrotation Yrotation
            JOINT RightArmRoll
            {
              OFFSET 0 6.28686 0
              CHANNELS 3 Zrotation Xrotation Yrotation
              JOINT RightForeArm
              {
                OFFSET 0 18.3114 0
                CHANNELS 3 Zrotation Xrotation Yrotation
                JOINT RightForeArmRoll
                {
                  OFFSET 0 7.05482 0
                  CHANNELS 3 Zrotation Xrotation Yrotation
                  JOINT RightHand
                  {
                    OFFSET 0 14.1575 0
                    CHANNELS 3 Zrotation Xrotation Yrotation
                    End Site
                    {
                      OFFSET 0 0 0
                    }
                  }
                }
              }
            }
          }
        }
        JOINT LeftShoulder
        {
          OFFSET 3.70221 9.49509 -0.515508
          CHANNELS 3 Zrotation Xrotation Yrotation
          JOINT LeftArm
          {
            OFFSET 0 12.4537 0
            CHANNELS 3 Zrotation Xrotation Yrotation
            JOINT LeftArmRoll
            {
              OFFSET 0 6.28686 0
              CHANNELS 3 Zrotation Xrotation Yrotation
              JOINT LeftForeArm
              {
                OFFSET 0 18.3114 0
                CHANNELS 3 Zrotation Xrotation Yrotation
                JOINT LeftForeArmRoll
                {
                  OFFSET 0 7.05482 0
                  CHANNELS 3 Zrotation Xrotation Yrotation
                  JOINT LeftHand
                  {
                    OFFSET 0 14.1575 0
                    CHANNELS 3 Zrotation Xrotation Yrotation
                    End Site
                    {
                      OFFSET 0 0 0
                    }
                  }
                }
              }
            }
          }
        }
      }
    }
  }
  JOINT RightUpLeg
  {
    OFFSET -5.66616 -1.03903 -0.87161
    CHANNELS 3 Zrotation Xrotation Yrotation
    JOINT RightUpLegRoll
    {
      OFFSET 0 16.6005 0
      CHANNELS 3 Zrotation Xrotation Yrotation
      JOINT RightLeg
      {
        OFFSET 0 -20.5572 0
        CHANNELS 3 Zrotation Xrotation Yrotation
        JOINT RightLegRoll
        {
          OFFSET 0 20.6244 0
          CHANNELS 3 Zrotation Xrotation Yrotation
          JOINT RightFoot
          {
            OFFSET 0 17.1664 0
            CHANNELS 3 Zrotation Xrotation Yrotation
            JOINT RightToeBase
            {
              OFFSET 0 14.3502 0
              CHANNELS 3 Zrotation Xrotation Yrotation
              End Site
              {
                OFFSET 0.00608252 6.94971 -0.801061
              }
            }
          }
        }
      }
    }
  }
  JOINT LeftUpLeg
  {
    OFFSET 5.66616 -1.03903 -0.87161
    CHANNELS 3 Zrotation Xrotation Yrotation
    JOINT LeftUpLegRoll
    {
      OFFSET 0 16.6006 0
      CHANNELS 3 Zrotation Xrotation Yrotation
      JOINT LeftLeg
      {
        OFFSET 0 20.5571 0
        CHANNELS 3 Zrotation Xrotation Yrotation
        JOINT LeftLegRoll
        {
          OFFSET 0 20.8151 0
          CHANNELS 3 Zrotation Xrotation Yrotation
          JOINT LeftFoot
          {
            OFFSET 0 16.9757 0
            CHANNELS 3 Zrotation Xrotation Yrotation
            JOINT LeftToeBase
            {
              OFFSET 0 14.3502 0
              CHANNELS 3 Zrotation Xrotation Yrotation
              End Site
              {
                OFFSET -0.0272592 6.94971 -0.80106
              }
            }
          }
        }
      }
    }
  }
}
MOTION
Frames: 4
Frame Time: 0.00208333
53.8468 85.5394 7.10193 -1.06486 -2.87243 -2.11646 -0.0427139 -1.37749 -0.168615 -0.110246 1.248 -0.321542 -0.106467 2.89306 -0.319864 -4.72289 14.8539 0.520074 3.65648 15.6733 -1.26287 21.9719 -17.9745 -15.9285 68.6469 39.1396 63.31 -1.64242e-007 7.0576e-007 -3.12372e-006 -11.6752 39.2114 6.6962 -2.44176e-007 -4.83522e-006 -3.00842 8.0289 -4.95144 0.697717 -22.9008 -20.7014 19.1757 -69.5113 35.399 -55.6824 -1.61433e-006 3.78306e-006 2.33583e-006 19.9689 39.1135 -11.6573 5.73947e-006 -3.7781e-006 3.00923 -8.02903 -4.95146 -0.697686 175.687 -0.76975 1.17308 180 7.01546e-015 178.92 176.229 5.85914 179.803 1.13523e-006 -4.47681e-006 0.055234 -18.1409 67.3876 19.0369 8.13706 25.241 -3.48906 -174.61 -0.239878 0.551329 4.54188e-006 -4.6773e-006 -1.0142 -0.558388 -8.83986 0.61129 5.28678e-008 -5.90967e-006 -0.0621856 18.0108 69.5238 -20.8032 -8.13657 25.2338 3.48619 
53.8526 85.5411 7.09827 -1.06699 -2.87735 -2.10574 -0.042493 -1.37586 -0.168398 -0.109348 1.25126 -0.320979 -0.105575 2.89632 -0.31932 -4.71927 14.8275 0.516784 3.65352 15.6496 -1.26307 22.0908 -17.9663 -15.8988 68.7864 39.0429 63.0305 -1.64242e-007 7.0576e-007 -3.12372e-006 -11.6943 38.7261 6.60198 -2.44176e-007 -4.83522e-006 -3.00842 8.0289 -4.95144 0.697717 -22.9936 -20.6747 19.1217 -69.6572 35.2887 -55.3643 -1.61433e-006 3.78306e-006 2.33583e-006 19.8637 38.5449 -11.4168 5.73947e-006 -3.7781e-006 3.00921 -8.02903 -4.95146 -0.697686 175.69 -0.776028 1.17074 180 7.01546e-015 178.92 176.231 5.85897 179.802 1.13523e-006 -4.47681e-006 0.0552365 -18.1409 67.3874 19.0366 8.13706 25.241 -3.48906 -174.612 -0.239097 0.558213 4.54188e-006 -4.6773e-006 -1.01399 -0.54844 -8.84333 0.61333 5.28678e-008 -5.90967e-006 -0.0617189 17.9996 69.5226 -20.8013 -8.13657 25.2338 3.48619 
53.8594 85.5405 7.09805 -1.06931 -2.88144 -2.09537 -0.042511 -1.37438 -0.168191 -0.10856 1.25422 -0.320665 -0.104791 2.89928 -0.319019 -4.71489 14.8003 0.513741 3.6496 15.6268 -1.2627 22.2131 -17.9566 -15.8665 68.9236 38.9448 62.7526 -1.64242e-007 7.0576e-007 -3.12372e-006 -11.7107 38.2419 6.50721 -2.44176e-007 -4.83522e-006 -3.00842 8.0289 -4.95144 0.697717 -23.0862 -20.6482 19.0683 -69.8033 35.1788 -55.0449 -1.61433e-006 3.78306e-006 2.33583e-006 19.7593 37.9724 -11.1774 5.73947e-006 -3.7781e-006 3.0092 -8.02903 -4.95146 -0.697686 175.694 -0.781326 1.16805 180 7.01546e-015 178.92 176.233 5.85887 179.802 1.13523e-006 -4.47681e-006 0.0552391 -18.1409 67.3873 19.0364 8.13706 25.241 -3.48906 -174.611 -0.237523 0.561891 4.54188e-006 -4.6773e-006 -1.01376 -0.542102 -8.84746 0.61495 5.28678e-008 -5.90967e-006 -0.0611784 17.9904 69.5217 -20.7995 -8.13657 25.2338 3.48619 
53.857 85.5409 7.097 -1.0718 -2.8846 -2.08504 -0.0427877 -1.3731 -0.168002 -0.107901 1.25679 -0.320567 -0.104135 2.90186 -0.318928 -4.71018 14.7725 0.510902 3.64555 15.6046 -1.26198 22.3387 -17.946 -15.8327 69.0585 38.8455 62.4745 -1.64242e-007 7.0576e-007 -3.12372e-006 -11.7236 37.7582 6.41051 -2.44176e-007 -4.83522e-006 -3.00842 8.0289 -4.95144 0.697717 -23.1785 -20.6217 19.015 -69.9494 35.0691 -54.7252 -1.61433e-006 3.78306e-006 2.33583e-006 19.6565 37.396 -10.9382 5.73947e-006 -3.7781e-006 3.00919 -8.02903 -4.95146 -0.697686 175.699 -0.785638 1.16501 180 7.01546e-015 178.92 176.236 5.85881 179.802 1.13523e-006 -4.47681e-006 0.0552416 -18.141 67.3872 19.0362 8.13706 25.241 -3.48906 -174.609 -0.2349 0.563073 4.54188e-006 -4.6773e-006 -1.01352 -0.538577 -8.85242 0.616295 5.28678e-008 -5.90967e-006 -0.0605503 17.9827 69.5213 -20.7981 -8.13657 25.2338 3.48619 
